<svg xmlns="http://www.w3.org/2000/svg" viewBox="0 0 512 512"><path d="M141.241 176.552H52.966V35.31C52.966 15.89 68.855 0 88.276 0h17.655c19.421 0 35.31 15.89 35.31 35.31v141.242zm-88.275 88.276h88.276v-35.31H52.966v35.31z" fill="#368cd6"/><path d="M141.241 229.517c-7.062-6.179-17.655-15.89-17.655-26.483s10.593-20.303 17.655-26.483H52.966c7.062 6.179 17.655 15.89 17.655 26.483s-10.593 20.303-17.655 26.483h88.275z" fill="#1767a3"/><path d="M97.103 414.897c-5.297 0-9.71-3.531-10.593-8.828l-7.062-35.31v-44.138h35.31v44.138l-7.062 35.31c-.882 5.297-5.296 8.828-10.593 8.828" fill="#c3c7cb"/><path d="M79.448 326.621h35.31v-61.793h-35.31v61.793z" fill="#e0e0e0"/><path d="M97.103 150.069c-5.297 0-8.828-3.531-8.828-8.828V35.31c0-5.297 3.531-8.828 8.828-8.828 5.297 0 8.828 3.531 8.828 8.828v105.931c0 5.297-3.531 8.828-8.828 8.828" fill="#1767a3"/><path d="M300.138 176.552h-88.276V35.31c0-19.421 15.89-35.31 35.31-35.31h17.655c19.421 0 35.31 15.89 35.31 35.31v141.242zm-88.276 88.276h88.276v-35.31h-88.276v35.31z" fill="#f4ba48"/><path d="M300.138 229.517c-7.062-6.179-17.655-15.89-17.655-26.483s10.593-20.303 17.655-26.483h-88.276c7.062 6.179 17.655 15.89 17.655 26.483s-10.593 20.303-17.655 26.483h88.276z" fill="#bd9139"/><path d="M282.483 476.69h-52.966v-35.31l8.828-17.655h35.31l8.828 17.655v35.31z" fill="#c3c7cb"/><path d="M273.655 423.724h-35.31V264.828h35.31v158.896z" fill="#e0e0e0"/><path d="M256 150.069c-5.297 0-8.828-3.531-8.828-8.828V35.31c0-5.297 3.531-8.828 8.828-8.828 5.297 0 8.828 3.531 8.828 8.828v105.931c0 5.297-3.531 8.828-8.828 8.828" fill="#bd9139"/><path d="M459.034 176.552h-88.276V35.31c0-19.421 15.89-35.31 35.31-35.31h17.655c19.421 0 35.31 15.89 35.31 35.31v141.242zm-88.275 88.276h88.276v-35.31h-88.276v35.31z" fill="#e85a4b"/><path d="M459.034 229.517c-7.062-6.179-17.655-15.89-17.655-26.483s10.593-20.303 17.655-26.483h-88.276c7.062 6.179 17.655 15.89 17.655 26.483s-10.593 20.303-17.655 26.483h88.276z" fill="#bc342e"/><path d="M423.724 512h-17.655l-17.655-44.138 8.828-44.138h35.31l8.828 44.138L423.724 512z" fill="#c3c7cb"/><path d="M397.241 423.724h35.31V264.828h-35.31v158.896z" fill="#e0e0e0"/><path d="M414.897 150.069c-5.297 0-8.828-3.531-8.828-8.828V35.31c0-5.297 3.531-8.828 8.828-8.828s8.828 3.531 8.828 8.828v105.931c-.001 5.297-3.532 8.828-8.828 8.828" fill="#bc342e"/></svg>